<svg width="100" height="100" viewBox="0 0 100 100" fill="none" xmlns="http://www.w3.org/2000/svg">
<circle cx="50" cy="50" r="50" fill="#151515"/>
<g filter="url(#filter0_f_23_18)">
<circle cx="58" cy="43" r="16" fill="#EE3004"/>
</g>
<path d="M81.9 73.516C78.1213 75.4227 74.2906 75.7347 70.408 74.452C66.2826 73.1347 62.7293 70.3267 59.748 66.028C58.1533 63.74 56.784 61.088 55.64 58.072L53.976 53.652H41.704L38.948 60.204C38.7746 60.6547 38.688 61.0187 38.688 61.296C38.688 61.5733 38.74 61.8853 38.844 62.232C38.9826 62.544 39.2426 62.8387 39.624 63.116C40.04 63.3587 40.4906 63.48 40.976 63.48H41.392V64H30.264V63.48H30.732C31.5293 63.48 32.3093 63.2547 33.072 62.804C33.8693 62.3187 34.528 61.608 35.048 60.672L46.644 34.204C45.292 31.1533 43.8533 29.056 42.328 27.912C41.0453 26.9413 39.8146 26.456 38.636 26.456C37.492 26.456 36.4173 26.6293 35.412 26.976L35.308 26.456C37.804 25.1733 40.196 24.532 42.484 24.532C45.3266 24.532 47.8746 25.6413 50.128 27.86C52.3466 30.044 54.3053 33.1987 56.004 37.324L63.544 55.94C66.3866 62.9773 69.2986 67.8133 72.28 70.448C73.4933 71.5227 74.7413 72.268 76.024 72.684C77.3066 73.1 78.3813 73.308 79.248 73.308C80.1493 73.308 81.016 73.204 81.848 72.996L81.9 73.516ZM42.588 51.416H53.196L49.556 41.796C49.3826 41.3107 49.14 40.652 48.828 39.82C48.516 38.9533 48.308 38.3467 48.204 38L42.588 51.416Z" fill="url(#paint0_linear_23_18)"/>
<defs>
<filter id="filter0_f_23_18" x="17" y="2" width="82" height="82" filterUnits="userSpaceOnUse" color-interpolation-filters="sRGB">
<feFlood flood-opacity="0" result="BackgroundImageFix"/>
<feBlend mode="normal" in="SourceGraphic" in2="BackgroundImageFix" result="shape"/>
<feGaussianBlur stdDeviation="12.5" result="effect1_foregroundBlur_23_18"/>
</filter>
<linearGradient id="paint0_linear_23_18" x1="14" y1="13.2666" x2="86" y2="77.7334" gradientUnits="userSpaceOnUse">
<stop stop-color="white"/>
<stop offset="0.71" stop-color="#C18079"/>
<stop offset="1" stop-color="#911001"/>
</linearGradient>
</defs>
</svg>
