<svg width="91" height="91" viewBox="0 0 91 91" fill="none" xmlns="http://www.w3.org/2000/svg">
<circle cx="46.5" cy="43.5" r="40.5" fill="#151515"/>
<g filter="url(#filter0_f_23_18)">
<circle cx="50" cy="41" r="16" fill="#EE3004"/>
</g>
<path d="M73.3788 63.869C70.2542 65.4457 67.0865 65.7037 63.8758 64.643C60.4645 63.5537 57.5262 61.2317 55.0608 57.677C53.7422 55.785 52.6098 53.592 51.6638 51.098L50.2878 47.443H40.1398L37.8608 52.861C37.7175 53.2337 37.6458 53.5347 37.6458 53.764C37.6458 53.9933 37.6888 54.2513 37.7748 54.538C37.8895 54.796 38.1045 55.0397 38.4198 55.269C38.7638 55.4697 39.1365 55.57 39.5378 55.57H39.8818V56H30.6798V55.57H31.0668C31.7262 55.57 32.3712 55.3837 33.0018 55.011C33.6612 54.6097 34.2058 54.022 34.6358 53.248L44.2248 31.361C43.1068 28.8383 41.9172 27.104 40.6558 26.158C39.5952 25.3553 38.5775 24.954 37.6028 24.954C36.6568 24.954 35.7682 25.0973 34.9368 25.384L34.8508 24.954C36.9148 23.8933 38.8928 23.363 40.7848 23.363C43.1355 23.363 45.2425 24.2803 47.1058 26.115C48.9405 27.921 50.5602 30.5297 51.9648 33.941L58.1998 49.335C60.5505 55.1543 62.9585 59.1533 65.4238 61.332C66.4272 62.2207 67.4592 62.837 68.5198 63.181C69.5805 63.525 70.4692 63.697 71.1858 63.697C71.9312 63.697 72.6478 63.611 73.3358 63.439L73.3788 63.869ZM40.8708 45.594H49.6428L46.6328 37.639C46.4895 37.2377 46.2888 36.693 46.0308 36.005C45.7728 35.2883 45.6008 34.7867 45.5148 34.5L40.8708 45.594Z" fill="url(#paint0_linear_23_18)"/>
<defs>
<filter id="filter0_f_23_18" x="9" y="0" width="82" height="82" filterUnits="userSpaceOnUse" color-interpolation-filters="sRGB">
<feFlood flood-opacity="0" result="BackgroundImageFix"/>
<feBlend mode="normal" in="SourceGraphic" in2="BackgroundImageFix" result="shape"/>
<feGaussianBlur stdDeviation="12.5" result="effect1_foregroundBlur_23_18"/>
</filter>
<linearGradient id="paint0_linear_23_18" x1="11" y1="14.2666" x2="83" y2="78.7334" gradientUnits="userSpaceOnUse">
<stop stop-color="white"/>
<stop offset="0.71" stop-color="#C18079"/>
<stop offset="1" stop-color="#911001"/>
</linearGradient>
</defs>
</svg>
